<?xml version="1.0" encoding="utf-8"?>
<!-- Generator: Adobe Illustrator 25.0.1, SVG Export Plug-In . SVG Version: 6.00 Build 0)  -->
<svg version="1.1" id="Layer_1" xmlns="http://www.w3.org/2000/svg" xmlns:xlink="http://www.w3.org/1999/xlink" x="0px" y="0px"
	 viewBox="0 0 25 25" style="enable-background:new 0 0 25 25;" xml:space="preserve">
<style type="text/css">
	.st0{fill:#046AAC;}
</style>
<path class="st0" d="M20.5,3.5h-16c-0.5,0-1,0.2-1.4,0.6C2.7,4.5,2.5,5,2.5,5.5v4c0,0.5,0.2,1,0.6,1.4c0.4,0.4,0.9,0.6,1.4,0.6h16
	c0.5,0,1-0.2,1.4-0.6c0.4-0.4,0.6-0.9,0.6-1.4v-4c0-0.5-0.2-1-0.6-1.4C21.5,3.8,21,3.5,20.5,3.5z M15.5,7.5c0,0.6-0.4,1-1,1
	s-1-0.4-1-1c0-0.6,0.4-1,1-1S15.5,7,15.5,7.5z M19.5,7.5c0,0.6-0.4,1-1,1s-1-0.4-1-1c0-0.6,0.4-1,1-1S19.5,7,19.5,7.5z M20.5,13.5
	h-16c-0.5,0-1,0.2-1.4,0.6c-0.4,0.4-0.6,0.9-0.6,1.4v4c0,0.5,0.2,1,0.6,1.4c0.4,0.4,0.9,0.6,1.4,0.6h16c0.5,0,1-0.2,1.4-0.6
	c0.4-0.4,0.6-0.9,0.6-1.4v-4c0-0.5-0.2-1-0.6-1.4C21.5,13.8,21,13.5,20.5,13.5z M15.5,17.5c0,0.6-0.4,1-1,1s-1-0.4-1-1
	c0-0.6,0.4-1,1-1S15.5,17,15.5,17.5z M19.5,17.5c0,0.6-0.4,1-1,1s-1-0.4-1-1c0-0.6,0.4-1,1-1S19.5,17,19.5,17.5z"/>
</svg>
