<?xml version="1.0" encoding="utf-8"?>
<!-- Generator: Adobe Illustrator 25.0.1, SVG Export Plug-In . SVG Version: 6.00 Build 0)  -->
<svg version="1.1" id="Layer_1" xmlns="http://www.w3.org/2000/svg" xmlns:xlink="http://www.w3.org/1999/xlink" x="0px" y="0px"
	 viewBox="0 0 24 25" style="enable-background:new 0 0 24 25;" xml:space="preserve">
<style type="text/css">
	.st0{fill:#046AAC;}
</style>
<path class="st0" d="M19,9.5c0-0.9-0.2-1.8-0.5-2.7c-0.4-0.8-0.9-1.6-1.5-2.3c-0.6-0.7-1.4-1.2-2.3-1.5c-0.8-0.4-1.8-0.5-2.7-0.5
	s-1.8,0.2-2.7,0.5C8.5,3.4,7.7,3.9,7.1,4.6S5.9,6,5.5,6.9C5.2,7.7,5,8.6,5,9.5c0,1.4,0.4,2.7,1.1,3.8h0C8.5,17,12,22.5,12,22.5
	l5.9-9.2h0C18.6,12.2,19,10.9,19,9.5z M12,12.5c-0.8,0-1.6-0.3-2.1-0.9C9.3,11.1,9,10.3,9,9.5C9,8.8,9.3,8,9.9,7.4
	c0.6-0.6,1.3-0.9,2.1-0.9s1.6,0.3,2.1,0.9S15,8.8,15,9.5c0,0.8-0.3,1.6-0.9,2.1S12.8,12.5,12,12.5z"/>
</svg>
