<?xml version="1.0" encoding="utf-8"?>
<svg version="1.1" id="Layer_1" xmlns="http://www.w3.org/2000/svg" x="0px" y="0px"
	 viewBox="0 0 25 25" style="enable-background:new 0 0 25 25;" xml:space="preserve">
<style type="text/css">
	.st0{fill-rule:evenodd;clip-rule:evenodd;fill:#046AAC;}
</style>
<path class="st0" d="M12.5,11.3c1,0,1.9-0.4,2.5-1.1c0.7-0.7,1.1-1.6,1.1-2.5S15.7,5.9,15,5.2s-1.6-1.1-2.5-1.1S10.6,4.5,10,5.2
	C9.3,5.9,8.9,6.8,8.9,7.7s0.4,1.9,1.1,2.5C10.6,11,11.5,11.3,12.5,11.3z M7.4,22.1c-1.8,0-3.4-1.5-2.7-3.2c0.4-1,1-1.9,1.8-2.7
	c0.8-0.8,1.7-1.4,2.7-1.8c1-0.4,2.1-0.6,3.2-0.6s2.2,0.2,3.2,0.6c1,0.4,1.9,1,2.7,1.8c0.8,0.8,1.4,1.7,1.8,2.7
	c0.7,1.7-0.8,3.2-2.7,3.2H7.4z"/>
</svg>
